<?xml version="1.0" encoding="UTF-8"?>
<svg version="1.1" xmlns="http://www.w3.org/2000/svg" width="606" height="383">
<path d="M0 0 C3.05883898 -0.0419019 6.10575536 0.01692582 9.1640625 0.0859375 C10.37320313 0.07949219 11.58234375 0.07304688 12.828125 0.06640625 C23.23139923 0.18728671 33.12314005 2.15567044 43.2265625 4.4609375 C44.23488632 4.69020432 44.23488632 4.69020432 45.26358032 4.92410278 C52.70618614 6.63255656 59.96578475 8.54604536 67.1640625 11.0859375 C68.89320032 11.65122291 70.6237475 12.21221025 72.35546875 12.76953125 C74.14584905 13.35411854 75.9362135 13.93875437 77.7265625 14.5234375 C78.62052734 14.81025391 79.51449219 15.09707031 80.43554688 15.39257812 C85.22728413 16.96645525 89.68891849 18.73237289 94.15600586 21.07055664 C97.89472547 22.96105328 101.79100066 24.49443858 105.6640625 26.0859375 C110.24089359 27.96662572 114.77178049 29.84444738 119.16796875 32.12109375 C130.91877085 38.09711597 144.13216805 41.33784876 156.9765625 43.9609375 C157.95230225 44.16388428 158.92804199 44.36683105 159.93334961 44.57592773 C203.17427521 52.88775861 249.85156524 45.81425269 290.1640625 29.0859375 C291.04739258 28.72145508 291.93072266 28.35697266 292.84082031 27.98144531 C295.74483302 26.7769122 298.64319215 25.55990972 301.5390625 24.3359375 C302.46235352 23.94680176 303.38564453 23.55766602 304.33691406 23.15673828 C305.19510742 22.78790527 306.05330078 22.41907227 306.9375 22.0390625 C307.70497559 21.71067383 308.47245117 21.38228516 309.26318359 21.04394531 C311.33416402 20.12464214 311.33416402 20.12464214 313.1640625 18.0859375 C315.13273131 17.39690341 317.10142136 16.70792978 319.0703125 16.01953125 C321.25514839 15.04532271 322.66270234 13.94879724 324.4140625 12.3359375 C327.1640625 10.0859375 327.1640625 10.0859375 329.4765625 10.1484375 C331.1640625 11.0859375 331.1640625 11.0859375 332.1640625 13.0859375 C331.0960715 15.55357482 329.96728933 17.89379707 328.7265625 20.2734375 C328.36691406 20.97944092 328.00726563 21.68544434 327.63671875 22.4128418 C325.75245029 26.09182689 323.81853466 29.74174307 321.84765625 33.375 C321.48148193 34.05151611 321.11530762 34.72803223 320.73803711 35.42504883 C320.0332003 36.72016043 319.32196671 38.01181532 318.60375977 39.29956055 C317.05979333 42.12156006 316.1640625 43.81346883 316.1640625 47.0859375 C328.3740625 47.0859375 340.5840625 47.0859375 353.1640625 47.0859375 C353.4940625 48.7359375 353.8240625 50.3859375 354.1640625 52.0859375 C352.4609375 54.2265625 352.4609375 54.2265625 349.9140625 56.3359375 C348.98335937 57.1196875 348.05265625 57.9034375 347.09375 58.7109375 C346.12695312 59.4946875 345.16015625 60.2784375 344.1640625 61.0859375 C343.32101562 61.7871875 342.47796875 62.4884375 341.609375 63.2109375 C339.83781542 64.67557035 338.05728194 66.12939344 336.26953125 67.57421875 C333.96944513 69.43453998 331.68206614 71.30646085 329.40234375 73.19140625 C320.89970609 80.20120648 312.26151281 86.86689525 303.1640625 93.0859375 C302.46522949 93.56417969 301.76639648 94.04242188 301.04638672 94.53515625 C291.51533857 101.02970887 281.86793915 107.26349982 271.89941406 113.06542969 C270.25381699 114.03315559 268.62627429 115.03139247 267 116.03125 C249.69147873 126.43320804 230.72306991 134.15158502 211.1640625 139.0859375 C209.27880859 139.59253906 209.27880859 139.59253906 207.35546875 140.109375 C168.49556537 149.07388181 120.91852285 138.80651922 83.1640625 129.0859375 C82.12024414 128.81910156 81.07642578 128.55226562 80.00097656 128.27734375 C66.15358137 124.7142713 52.5029081 120.67536096 38.87158203 116.36328125 C28.2396096 113.0333698 17.5149868 110.29768629 6.68359375 107.70605469 C3.19518564 106.84747362 -0.25310069 105.87278558 -3.7109375 104.8984375 C-11.97630889 102.66203487 -20.37140754 101.31582647 -28.8359375 100.0859375 C-30.07214844 99.89644531 -31.30835938 99.70695312 -32.58203125 99.51171875 C-38.18864008 98.83202525 -43.82202686 98.94108218 -49.4609375 98.9609375 C-50.56695312 98.95707031 -51.67296875 98.95320313 -52.8125 98.94921875 C-53.885 98.95050781 -54.9575 98.95179688 -56.0625 98.953125 C-57.02752441 98.95425293 -57.99254883 98.95538086 -58.98681641 98.95654297 C-62.00257848 99.0935056 -64.87044949 99.53344047 -67.8359375 100.0859375 C-70.13711892 112.60549386 -71.59732394 125.02003173 -72.5234375 137.7109375 C-72.65356381 139.41151459 -72.78442045 141.11203595 -72.91601562 142.8125 C-73.23102417 146.90305676 -73.53633243 150.99422493 -73.8359375 155.0859375 C-75.6059243 155.28126711 -77.37698029 155.46692632 -79.1484375 155.6484375 C-80.13457031 155.75285156 -81.12070313 155.85726562 -82.13671875 155.96484375 C-84.8359375 156.0859375 -84.8359375 156.0859375 -87.8359375 155.0859375 C-87.8359375 154.4259375 -87.8359375 153.7659375 -87.8359375 153.0859375 C-88.4959375 152.7559375 -89.1559375 152.4259375 -89.8359375 152.0859375 C-89.71476562 151.52390625 -89.59359375 150.961875 -89.46875 150.3828125 C-88.3799053 144.92183757 -87.66136066 139.51171181 -87.18310547 133.96948242 C-86.42914298 125.24423078 -85.08691261 117.07922409 -82.77734375 108.63671875 C-81.94456321 105.49565023 -81.30647695 102.41365352 -80.7734375 99.2109375 C-79.20175728 90.01522957 -76.11768563 81.21987079 -72.3359375 72.7109375 C-71.1917525 69.94582375 -70.3606932 67.4487543 -69.5859375 64.5859375 C-67.87033498 58.64033089 -65.19673778 53.17608102 -62.52734375 47.6171875 C-61.24280292 44.93537478 -60.01230534 42.25301828 -58.8359375 39.5234375 C-56.36424147 33.90690269 -53.5561146 28.45346078 -50.79003906 22.97802734 C-49.15057991 19.72679694 -47.52532411 16.46847183 -45.8984375 13.2109375 C-44.87760417 11.16927083 -43.85677083 9.12760417 -42.8359375 7.0859375 C-42.1759375 7.0859375 -41.5159375 7.0859375 -40.8359375 7.0859375 C-40.8359375 6.4259375 -40.8359375 5.7659375 -40.8359375 5.0859375 C-39.10923828 5.14587891 -39.10923828 5.14587891 -37.34765625 5.20703125 C-32.87505619 5.20604804 -28.94504785 4.30512117 -24.6484375 3.1484375 C-16.40813908 1.07823692 -8.49402783 0.25739478 0 0 Z M-14.8359375 26.0859375 C-15.7254239 28.43339697 -15.7254239 28.43339697 -16.265625 31.22265625 C-16.61923096 32.79104248 -16.61923096 32.79104248 -16.97998047 34.39111328 C-17.22119629 35.50728027 -17.46241211 36.62344727 -17.7109375 37.7734375 C-19.65999806 46.40955884 -21.82545408 54.71855686 -24.953125 63 C-26.11653188 67.06677627 -26.7807199 71.19637271 -24.8359375 75.0859375 C-23.5159375 75.0859375 -22.1959375 75.0859375 -20.8359375 75.0859375 C-20.8359375 74.4259375 -20.8359375 73.7659375 -20.8359375 73.0859375 C-20.2584375 72.8590625 -19.6809375 72.6321875 -19.0859375 72.3984375 C-13.6984036 69.25570939 -11.37480202 63.52829069 -8.8359375 58.0859375 C1.72214906 61.16110834 1.72214906 61.16110834 6.1640625 63.0859375 C6.28934214 69.60047889 6.28934214 69.60047889 5.6640625 72.0234375 C4.83876052 75.42780815 4.99472454 78.58628628 5.1640625 82.0859375 C5.8240625 82.7459375 6.4840625 83.4059375 7.1640625 84.0859375 C10.36131732 84.43006772 10.36131732 84.43006772 12.6015625 81.7734375 C18.07467942 74.71082255 19.68485474 65.38972377 21.72802734 56.86987305 C22.61493383 53.18678427 23.59329499 49.5966729 24.8515625 46.0234375 C26.11190561 42.37470939 27.01149688 38.97636083 27.1640625 35.0859375 C25.8729754 32.6647056 25.8729754 32.6647056 24.1640625 31.0859375 C21.82258019 30.96379856 21.82258019 30.96379856 19.1640625 32.0859375 C17.10530208 34.52257166 15.67426528 37.28632182 14.1640625 40.0859375 C13.34808594 41.55933594 13.34808594 41.55933594 12.515625 43.0625 C11.04859066 45.72795676 9.60451654 48.40602301 8.1640625 51.0859375 C4.2040625 49.7659375 0.2440625 48.4459375 -3.8359375 47.0859375 C-3.80113281 46.15652344 -3.76632813 45.22710937 -3.73046875 44.26953125 C-3.32504611 34.69143052 -3.32504611 34.69143052 -6.8359375 26.0859375 C-10.53576999 23.77354219 -11.10657769 23.59969763 -14.8359375 26.0859375 Z M48.1640625 43.0859375 C45.90447725 46.76519268 43.91048556 50.57141612 41.9140625 54.3984375 C40.77235391 56.55809621 39.6291187 58.71694854 38.484375 60.875 C37.92524414 61.93106445 37.36611328 62.98712891 36.79003906 64.07519531 C35.33680951 66.76607021 33.83456703 69.41289468 32.28125 72.046875 C31.85618164 72.77092529 31.43111328 73.49497559 30.99316406 74.2409668 C30.21223481 75.55914117 29.42050571 76.87099971 28.61621094 78.17504883 C26.93702858 81.03226528 26.12434657 82.66097709 26.4375 86.01171875 C26.67726563 86.69621094 26.91703125 87.38070312 27.1640625 88.0859375 C29.87519107 87.38879015 31.70396611 86.77528607 33.29296875 84.39453125 C33.66292969 83.75644531 34.03289062 83.11835938 34.4140625 82.4609375 C35.94912088 80.11692771 36.58095202 79.22726589 39.33984375 78.55859375 C43.53890885 78.49674173 46.47384068 79.01907857 50.1640625 81.0859375 C49.93589844 81.74980469 49.70773438 82.41367188 49.47265625 83.09765625 C49.18519531 83.98066406 48.89773437 84.86367187 48.6015625 85.7734375 C48.31152344 86.64355469 48.02148438 87.51367188 47.72265625 88.41015625 C47.11264289 91.33224824 47.38702617 93.22994303 48.1640625 96.0859375 C50.6390625 95.5909375 50.6390625 95.5909375 53.1640625 95.0859375 C53.1640625 94.4259375 53.1640625 93.7659375 53.1640625 93.0859375 C54.6490625 92.5909375 54.6490625 92.5909375 56.1640625 92.0859375 C58.03932112 87.65656321 58.87637122 82.98844032 59.7265625 78.2734375 C59.85587158 77.56276123 59.98518066 76.85208496 60.1184082 76.11987305 C62.22894896 64.30867665 64.10379021 51.68624687 60.1640625 40.0859375 C58.34988541 37.89620253 58.34988541 37.89620253 55.8515625 37.6484375 C52.09819199 38.2594513 50.4244603 40.19584345 48.1640625 43.0859375 Z M79.1640625 58.0859375 C77.11146165 61.29614092 75.57402027 64.55036158 74.1640625 68.0859375 C73.844375 68.85679687 73.5246875 69.62765625 73.1953125 70.421875 C70.29670294 78.50040721 69.2808625 89.02791726 72.2890625 97.2109375 C74.91974668 101.24465324 77.5349821 104.17411771 82.19140625 105.7890625 C84.56612269 106.34983979 84.56612269 106.34983979 88.1640625 106.0859375 C90.72441003 103.80518565 90.72441003 103.80518565 92.1640625 101.0859375 C91.24173828 100.61414063 91.24173828 100.61414063 90.30078125 100.1328125 C89.49253906 99.70484375 88.68429687 99.276875 87.8515625 98.8359375 C87.05105469 98.41828125 86.25054687 98.000625 85.42578125 97.5703125 C82.90281342 95.91447869 81.60217351 94.74341772 80.1640625 92.0859375 C79.32355257 82.01295126 82.02395725 71.67067632 87.39453125 63.12890625 C88.6015625 61.7109375 88.6015625 61.7109375 91.1640625 60.0859375 C94.98895693 60.16399657 97.86908393 61.18498833 101.1640625 63.0859375 C102.58448071 60.24510109 102.47858522 58.23116472 102.1640625 55.0859375 C100.9853962 52.48681499 100.9853962 52.48681499 98.1640625 51.0859375 C89.77512394 49.40276363 84.40369299 51.41406177 79.1640625 58.0859375 Z M261.1640625 58.0859375 C261.70788698 63.93205067 263.33504871 69.27067239 265.12890625 74.8515625 C265.76202321 76.82975436 266.36589953 78.81798892 266.91796875 80.8203125 C267.93573206 84.37957619 268.71998972 86.6157428 271.2890625 89.3359375 C275.59453391 90.45910395 279.31090235 89.23542767 283.1640625 87.0859375 C283.4940625 86.0959375 283.8240625 85.1059375 284.1640625 84.0859375 C284.8240625 84.0859375 285.4840625 84.0859375 286.1640625 84.0859375 C286.1640625 83.4259375 286.1640625 82.7659375 286.1640625 82.0859375 C287.1540625 81.7559375 288.1440625 81.4259375 289.1640625 81.0859375 C289.40834593 75.2884952 289.40834593 75.2884952 287.1640625 70.0859375 C286.5040625 70.0859375 285.8440625 70.0859375 285.1640625 70.0859375 C285.1640625 69.4259375 285.1640625 68.7659375 285.1640625 68.0859375 C284.1740625 67.7559375 283.1840625 67.4259375 282.1640625 67.0859375 C282.27105469 66.42207031 282.37804687 65.75820312 282.48828125 65.07421875 C283.26752941 59.46558269 283.26752941 59.46558269 282.0390625 54.0234375 C280.290623 52.00235573 280.290623 52.00235573 278.0390625 51.0234375 C271.92395165 51.15637469 266.20082976 54.83641024 261.1640625 58.0859375 Z M117.1640625 59.0859375 C114.18695664 62.06304336 114.07982982 65.09940553 113.8046875 69.17578125 C112.85778554 81.24191061 110.55477536 90.72589571 104.8515625 101.5234375 C103.15392696 105.10733476 102.77408802 107.18619267 103.1640625 111.0859375 C106.15558832 110.31114014 106.15558832 110.31114014 109.1640625 109.0859375 C109.4940625 108.0959375 109.8240625 107.1059375 110.1640625 106.0859375 C110.8240625 106.0859375 111.4840625 106.0859375 112.1640625 106.0859375 C113.00475665 104.48561613 113.83637755 102.88052579 114.6640625 101.2734375 C115.128125 100.38011719 115.5921875 99.48679688 116.0703125 98.56640625 C117.36579391 96.08025724 117.36579391 96.08025724 117.1640625 93.0859375 C118.8140625 93.0859375 120.4640625 93.0859375 122.1640625 93.0859375 C124.78268844 97.42021491 125.21070754 102.33591619 126.01953125 107.2421875 C126.88259842 112.42533659 126.88259842 112.42533659 129.1640625 117.0859375 C131.21407121 117.89122639 131.21407121 117.89122639 133.1640625 118.0859375 C135.36927152 115.78884477 136.12867522 114.32353781 136.6015625 111.1484375 C136.34790473 105.03395009 134.52954359 96.45141859 130.1640625 92.0859375 C130.1640625 88.0859375 130.1640625 88.0859375 132.2890625 85.7734375 C133.2378125 84.8865625 134.1865625 83.9996875 135.1640625 83.0859375 C140.2764011 77.92043802 140.2764011 77.92043802 142.1640625 71.0859375 C137.79650298 71.6084848 135.50264235 73.08672728 132.1640625 75.8984375 C131.3390625 76.58550781 130.5140625 77.27257812 129.6640625 77.98046875 C128.8390625 78.67527344 128.0140625 79.37007812 127.1640625 80.0859375 C125.50078184 81.42349236 123.83508702 82.7580698 122.1640625 84.0859375 C122.03899045 77.5821911 122.03899045 77.5821911 122.6484375 75.1640625 C123.63504926 71.18771812 123.66921089 67.14059523 123.1640625 63.0859375 C121.4952623 60.40974637 121.4952623 60.40974637 119.1640625 59.0859375 C118.5040625 59.0859375 117.8440625 59.0859375 117.1640625 59.0859375 Z M246.1640625 63.0859375 C245.98630858 67.17427757 246.22814857 70.66091687 247.1640625 74.6484375 C248.52405559 81.0081174 248.94578332 87.62203093 248.1640625 94.0859375 C246.8046875 96.00390625 246.8046875 96.00390625 245.1640625 97.0859375 C242.6015625 96.9609375 242.6015625 96.9609375 240.1640625 96.0859375 C238.15721501 93.07566626 237.5809335 91.18585376 236.7890625 87.7109375 C235.67490414 83.09674631 234.49096819 78.51901049 233.1640625 73.9609375 C232.7 72.34832031 232.7 72.34832031 232.2265625 70.703125 C231.32972853 67.79028388 231.32972853 67.79028388 228.1640625 66.0859375 C227.5040625 66.7459375 226.8440625 67.4059375 226.1640625 68.0859375 C226.37661245 74.61247141 228.64759793 81.21824371 230.4765625 87.4609375 C230.75898804 88.47728271 230.75898804 88.47728271 231.04711914 89.51416016 C232.71860147 94.95541164 235.41977948 98.09869807 239.9765625 101.3984375 C243.39778858 102.47367998 246.63125316 102.81861459 250.1640625 102.0859375 C254.42123345 97.93792478 255.30806285 94.91458147 255.40478516 89.06665039 C255.44000428 79.88650747 255.43316911 70.98959741 250.1640625 63.0859375 C248.8440625 63.0859375 247.5240625 63.0859375 246.1640625 63.0859375 Z M201.1640625 71.0859375 C198.98704204 74.3514682 198.94206146 74.69100142 199.41015625 78.328125 C199.51956543 79.21467773 199.62897461 80.10123047 199.74169922 81.01464844 C199.8810791 82.02817383 200.02045898 83.04169922 200.1640625 84.0859375 C200.31762207 85.25157227 200.47118164 86.41720703 200.62939453 87.61816406 C201.14720861 91.48457565 201.68427899 95.3478861 202.2265625 99.2109375 C202.41488892 100.56247557 202.60304115 101.91403793 202.79101562 103.265625 C203.24699241 106.53930447 203.7047153 109.81272955 204.1640625 113.0859375 C210.17168515 113.31249284 215.29427053 112.84759685 221.1015625 111.2734375 C221.75962891 111.10779297 222.41769531 110.94214844 223.09570312 110.77148438 C226.81249649 109.76334697 227.95348041 109.40181064 230.1640625 106.0859375 C227.30628217 105.40100377 227.30628217 105.40100377 224.1640625 105.0859375 C223.1740625 105.7459375 222.1840625 106.4059375 221.1640625 107.0859375 C218.24609375 107.28125 218.24609375 107.28125 214.9765625 107.2109375 C213.88988281 107.19289062 212.80320312 107.17484375 211.68359375 107.15625 C210.85214844 107.13304687 210.02070313 107.10984375 209.1640625 107.0859375 C209.11507813 105.85359375 209.06609375 104.62125 209.015625 103.3515625 C209.04503112 86.40380485 209.04503112 86.40380485 203.1640625 71.0859375 C202.5040625 71.0859375 201.8440625 71.0859375 201.1640625 71.0859375 Z M171.1640625 78.0859375 C165.81637259 87.4340311 166.56135403 99.02127665 169.1640625 109.0859375 C170.87977194 113.13501178 172.73088371 116.13048498 176.4140625 118.5859375 C180.82943094 119.38873176 186.05174969 120.14209391 190.1640625 118.0859375 C190.1640625 117.4259375 190.1640625 116.7659375 190.1640625 116.0859375 C191.6490625 115.5909375 191.6490625 115.5909375 193.1640625 115.0859375 C192.8340625 113.7659375 192.5040625 112.4459375 192.1640625 111.0859375 C191.57238281 111.19292969 190.98070312 111.29992187 190.37109375 111.41015625 C186.58345674 111.9847896 183.93178482 112.36966096 180.2890625 111.0234375 C175.73715305 106.87316712 174.35513211 101.69237637 174.0390625 95.7265625 C173.92989578 91.11426856 173.8414752 87.21498158 176.1640625 83.0859375 C178.1640625 81.0859375 178.1640625 81.0859375 181.1015625 80.8984375 C184.1640625 81.0859375 184.1640625 81.0859375 187.1640625 82.0859375 C188.11908408 80.36116839 188.11908408 80.36116839 188.1640625 78.0859375 C185.75075008 74.86818761 184.2017348 73.30671884 180.2265625 72.4609375 C176.20418994 73.28182986 173.72735771 74.9690312 171.1640625 78.0859375 Z " fill="#000000" transform="translate(181.8359375,110.9140625)"/>
<path d="M0 0 C2 2 2 2 2.5 5.3125 C2 9 2 9 -0.625 11.875 C-3.96505371 13.97799678 -6.1062425 14.72187446 -10 15 C-13.53790403 11.30827405 -13.59115883 7.90609405 -14 3 C-5.70905764 -1.90301921 -5.70905764 -1.90301921 0 0 Z " fill="#010102" transform="translate(465,183)"/>
<path d="M0 0 C0.02705308 2.41674224 0.04686438 4.8331794 0.0625 7.25 C0.07087891 7.93191406 0.07925781 8.61382812 0.08789062 9.31640625 C0.10481414 12.8026497 -0.1466503 15.58660119 -1 19 C-4.96 18.67 -8.92 18.34 -13 18 C-14 13 -14 13 -12.34765625 10.39453125 C-11.59355469 9.54246094 -10.83945313 8.69039062 -10.0625 7.8125 C-7.02286494 4.81560611 -7.02286494 4.81560611 -6 1 C-4 0 -4 0 0 0 Z " fill="#020202" transform="translate(238,161)"/>
<path d="M0 0 C-0.23621141 6.02339107 -0.23621141 6.02339107 -2.26171875 8.61328125 C-4.43485903 10.55651752 -6.25045921 11.9143382 -9.1875 12.25 C-12.17718007 10.18815167 -12.84718412 7.34316606 -14 4 C-14 3.01 -14 2.02 -14 1 C-4.58997722 -2.81321185 -4.58997722 -2.81321185 0 0 Z " fill="#010101" transform="translate(461,169)"/>
<path d="M0 0 C2 1 2 1 2 1 Z " fill="#000000" transform="translate(456,199)"/>
<path d="" fill="#000000" transform="translate(0,0)"/>
<path d="" fill="#000000" transform="translate(0,0)"/>
</svg>
