<?xml version="1.0" encoding="UTF-8"?>
<svg version="1.1" xmlns="http://www.w3.org/2000/svg" width="719" height="317">
<path d="M0 0 C0.63679687 0.22945313 1.27359375 0.45890625 1.9296875 0.6953125 C10.6822241 4.36146934 14.31616329 12.36915033 18.8125 20.2578125 C21.60631877 25.10097313 24.60137937 29.82062957 27.5625 34.5625 C31.41171893 40.74123921 35.15659306 46.9187101 38.5625 53.35546875 C40.37236174 56.68502417 42.30173854 59.9379014 44.25 63.1875 C44.62406982 63.81744873 44.99813965 64.44739746 45.38354492 65.09643555 C47.42533452 68.50371762 49.5428003 71.82523131 51.80078125 75.09375 C60.4385715 87.76703144 60.4385715 87.76703144 59.59765625 96.5078125 C58.21078919 102.29095751 54.84285207 105.77143195 50 109 C44.8405407 111.18048614 40.22591289 111.29061246 34.72509766 111.2746582 C33.81048264 111.27976913 32.89586761 111.28488007 31.95353699 111.29014587 C28.94031162 111.30400704 25.9273159 111.30308761 22.9140625 111.30078125 C20.81187862 111.30467026 18.70969552 111.30900535 16.60751343 111.31376648 C12.20446219 111.32122135 7.80149115 111.32094283 3.3984375 111.31567383 C-2.2326483 111.3098821 -7.86340487 111.32680676 -13.49443626 111.3500185 C-17.83541775 111.36477998 -22.1763204 111.36562421 -26.51732254 111.36250877 C-28.5928678 111.36302083 -30.66841761 111.36823681 -32.74393845 111.37832069 C-35.65161013 111.39071364 -38.5586464 111.38387602 -41.46630859 111.37231445 C-42.31644028 111.37995819 -43.16657196 111.38760193 -44.04246521 111.39547729 C-50.29975467 111.34072842 -56.1282032 110.44674907 -61.05859375 106.24609375 C-61.74115234 105.35083984 -61.74115234 105.35083984 -62.4375 104.4375 C-63.14712891 103.53837891 -63.14712891 103.53837891 -63.87109375 102.62109375 C-67.18496122 97.86242594 -66.81466774 92.57175951 -66 87 C-63.97822832 82.15101233 -61.26994317 77.83709147 -58.4375 73.4375 C-57.72348117 72.28600864 -57.01187827 71.13301559 -56.30273438 69.97851562 C-53.5903153 65.58566255 -50.79778214 61.2445754 -48.01171875 56.89819336 C-47.398125 55.93921143 -46.78453125 54.98022949 -46.15234375 53.9921875 C-45.612146 53.15413574 -45.07194824 52.31608398 -44.51538086 51.45263672 C-42.94610655 48.9127737 -41.52177787 46.3256306 -40.125 43.6875 C-37.44926633 38.67228795 -34.43379714 33.95346481 -31.32348633 29.203125 C-28.98609074 25.60789156 -26.83101871 21.97553379 -24.8125 18.1875 C-23.87723129 16.45712546 -22.93982943 14.72790169 -22 13 C-21.33291016 11.76056641 -21.33291016 11.76056641 -20.65234375 10.49609375 C-16.38742541 3.28493656 -8.79682522 -3.25100063 0 0 Z M-6 14 C-7.47141204 15.49925319 -7.47141204 15.49925319 -8.5859375 17.5859375 C-9.03839844 18.34648437 -9.49085938 19.10703125 -9.95703125 19.890625 C-10.42496094 20.71046875 -10.89289062 21.5303125 -11.375 22.375 C-12.11169922 23.62410156 -12.11169922 23.62410156 -12.86328125 24.8984375 C-14.25383011 27.25905094 -15.62747351 29.62888281 -17 32 C-17.99587154 33.6691368 -18.99481815 35.33645342 -20 37 C-20.4434375 37.74378906 -20.886875 38.48757812 -21.34375 39.25390625 C-22.7480698 41.58229497 -24.16711715 43.90011168 -25.59375 46.21484375 C-30.16747661 53.64345347 -34.65335209 61.05524966 -38.7421875 68.765625 C-39.88143535 70.78938205 -41.10040971 72.58898452 -42.5 74.4375 C-46.71185396 80.07153841 -50.60912207 87.06216843 -52 94 C-49.05786376 96.53811012 -47.28760531 97.3742565 -43.40722656 97.35644531 C-42.49420273 97.35940109 -41.58117889 97.36235687 -40.64048767 97.36540222 C-39.65053299 97.35310074 -38.66057831 97.34079926 -37.640625 97.328125 C-36.07840965 97.32592705 -36.07840965 97.32592705 -34.4846344 97.32368469 C-31.07282957 97.31439776 -27.66165304 97.28284637 -24.25 97.25 C-21.90454515 97.23740441 -19.55908587 97.22560965 -17.21362305 97.21459961 C-2.41150097 97.12823594 12.38921586 96.90892962 27.1875 96.5625 C28.04815063 96.54312378 28.90880127 96.52374756 29.79553223 96.50378418 C32.19072409 96.44749607 34.58556404 96.38371328 36.98046875 96.31640625 C38.03759315 96.2913073 38.03759315 96.2913073 39.11607361 96.26570129 C42.33941755 96.42447067 42.33941755 96.42447067 45 95 C45.80036482 89.97445343 43.29692905 86.74660097 40.625 82.75 C39.6958795 81.31381587 38.76885799 79.87627203 37.84375 78.4375 C37.36808594 77.70144531 36.89242187 76.96539062 36.40234375 76.20703125 C34.22045856 72.77314508 32.17011035 69.26651125 30.125 65.75 C24.97152917 56.92326683 19.71499178 48.1599776 14.44433594 39.40283203 C13.44060494 37.73300098 12.43878983 36.0620174 11.43847656 34.39013672 C8.75116473 29.89925426 6.05163598 25.42093017 3.25 21 C2.67765625 20.0925 2.1053125 19.185 1.515625 18.25 C0.05634897 15.92873919 0.05634897 15.92873919 -2 14 C-3.32 14 -4.64 14 -6 14 Z " fill="#1B1B1B" transform="translate(609,124)"/>
<path d="M0 0 C0.78375 0.00451172 1.5675 0.00902344 2.375 0.01367188 C4.29170014 0.02535907 6.20836048 0.04329092 8.125 0.0625 C8.15005615 0.96605225 8.1751123 1.86960449 8.20092773 2.80053711 C8.29587317 6.1421428 8.39511621 9.48356252 8.49731445 12.82495117 C8.5407163 14.2731424 8.58238744 15.72138654 8.62231445 17.16967773 C8.67989062 19.24739559 8.74362028 21.32484573 8.80859375 23.40234375 C8.84525146 24.65394287 8.88190918 25.90554199 8.91967773 27.19506836 C8.80303906 29.95880504 8.80303906 29.95880504 10.125 31.0625 C12.98377909 31.29951239 15.82383297 31.48469182 18.6875 31.625 C19.49380859 31.66818359 20.30011719 31.71136719 21.13085938 31.75585938 C23.12868805 31.86225262 25.1268207 31.96290888 27.125 32.0625 C27.16258423 30.92035034 27.16258423 30.92035034 27.20092773 29.75512695 C27.31719048 26.29492624 27.43977978 22.83497746 27.5625 19.375 C27.60181641 18.17681641 27.64113281 16.97863281 27.68164062 15.74414062 C27.74448242 14.00874023 27.74448242 14.00874023 27.80859375 12.23828125 C27.84525146 11.17520752 27.88190918 10.11213379 27.91967773 9.0168457 C28.1098525 6.28045468 28.5181507 3.73393268 29.125 1.0625 C33.78037356 0.14157719 38.27185433 -0.05955997 43 0 C43.68835938 0.00451172 44.37671875 0.00902344 45.0859375 0.01367188 C46.76566335 0.02533664 48.44534375 0.04326729 50.125 0.0625 C51.64773313 3.10796625 51.26354124 6.27683401 51.25439453 9.61743164 C51.25702301 10.78588875 51.25702301 10.78588875 51.25970459 11.97795105 C51.2641154 14.55954193 51.2611881 17.14106464 51.2578125 19.72265625 C51.25848569 21.51102207 51.25945585 23.29938779 51.26071167 25.0877533 C51.26218754 28.8378893 51.26003737 32.58800152 51.25537109 36.33813477 C51.24966976 41.15606864 51.25295607 45.97394686 51.25894356 50.7918787 C51.26254864 54.48490319 51.2614109 58.17791438 51.25881577 61.87093925 C51.25814656 63.64803512 51.25897468 65.42513217 51.26129532 67.20222664 C51.26382143 69.68050485 51.25998205 72.15869154 51.25439453 74.63696289 C51.25641876 75.37828461 51.25844299 76.11960632 51.26052856 76.88339233 C51.2392635 81.9482365 51.2392635 81.9482365 50.125 83.0625 C47.01745463 83.49673483 43.88086737 83.62537819 40.75 83.8125 C39.8734375 83.88082031 38.996875 83.94914062 38.09375 84.01953125 C37.25070313 84.06980469 36.40765625 84.12007813 35.5390625 84.171875 C34.7651416 84.22311523 33.9912207 84.27435547 33.19384766 84.32714844 C31.125 84.0625 31.125 84.0625 29.36523438 82.9934082 C27.46861737 80.0405846 27.80678317 77.53448813 27.8671875 74.05859375 C27.87711227 73.03995995 27.87711227 73.03995995 27.88723755 72.00074768 C27.91062658 69.83336904 27.95433817 67.66701419 28 65.5 C28.03505778 63.32953907 28.06584474 61.15913489 28.09133911 58.98854065 C28.11608237 57.02145149 28.15321094 55.05452985 28.19091797 53.08764648 C28.3424159 50.14097971 28.3424159 50.14097971 27.125 48.0625 C24.31243719 48.03565688 21.50012759 48.01573812 18.6875 48 C17.88505859 47.99162109 17.08261719 47.98324219 16.25585938 47.97460938 C14.21204779 47.9659857 12.16816098 48.0102185 10.125 48.0625 C8.14670928 50.04079072 8.86996068 53.88577027 8.80859375 56.59765625 C8.78781265 57.35090683 8.76703156 58.10415741 8.74562073 58.88023376 C8.68004575 61.2950599 8.62120379 63.70999798 8.5625 66.125 C8.5193223 67.75847529 8.47570827 69.3919391 8.43164062 71.02539062 C8.32435638 75.03764464 8.22311179 79.05001164 8.125 83.0625 C5.18781233 83.25711488 2.25050068 83.44347593 -0.6875 83.625 C-1.52087891 83.68107422 -2.35425781 83.73714844 -3.21289062 83.79492188 C-4.01533203 83.84326172 -4.81777344 83.89160156 -5.64453125 83.94140625 C-6.75211792 84.01210327 -6.75211792 84.01210327 -7.88208008 84.08422852 C-9.875 84.0625 -9.875 84.0625 -12.875 83.0625 C-12.88308685 82.23723816 -12.89117371 81.41197632 -12.89950562 80.56170654 C-12.97785489 72.73632932 -13.0652627 64.9111148 -13.16252708 57.08594894 C-13.2122056 53.06416944 -13.25853492 49.04241266 -13.296875 45.02050781 C-13.33409121 41.13001231 -13.38054261 37.23972129 -13.43306351 33.34940338 C-13.45141659 31.87450036 -13.46659272 30.39955383 -13.47834396 28.92458344 C-13.54442866 20.90734818 -13.93748736 13.19896033 -15.54971313 5.31866455 C-15.875 3.0625 -15.875 3.0625 -14.875 1.0625 C-9.94824223 -0.15767833 -5.03843228 -0.05550815 0 0 Z " fill="#010101" transform="translate(57.875,99.9375)"/>
<path d="M0 0 C0.75925781 0.11859375 1.51851563 0.2371875 2.30078125 0.359375 C13.54824444 2.54334843 22.11810745 7.89367545 28.5703125 17.29296875 C32.37527692 24.49745057 33.53100226 31.21787608 33.4375 39.3125 C33.42992676 40.23385742 33.42235352 41.15521484 33.41455078 42.10449219 C33.12406832 54.15209337 29.45695256 64.11986451 21.15234375 72.96875 C11.05298538 82.44568271 0.22604066 83.18389184 -13.0625 83.6875 C-14.34189453 83.74744141 -15.62128906 83.80738281 -16.93945312 83.86914062 C-18.16728516 83.91619141 -19.39511719 83.96324219 -20.66015625 84.01171875 C-22.34057007 84.08072388 -22.34057007 84.08072388 -24.05493164 84.15112305 C-27 84 -27 84 -31 82 C-31.33 55.27 -31.66 28.54 -32 1 C-28.05873308 -0.97063346 -23.15488715 -0.44351117 -18.8125 -0.625 C-17.78318359 -0.6765625 -16.75386719 -0.728125 -15.69335938 -0.78125 C-10.31187011 -1.01567746 -5.32237141 -1.001374 0 0 Z M-8 15 C-9.22428041 16.0030131 -9.22428041 16.0030131 -9.12025452 18.01844788 C-9.11803391 18.90447189 -9.11581329 19.79049591 -9.11352539 20.70336914 C-9.11344986 21.70433121 -9.11337433 22.70529327 -9.11329651 23.73658752 C-9.10813522 24.8251152 -9.10297394 25.91364288 -9.09765625 27.03515625 C-9.0962413 28.14354355 -9.09482635 29.25193085 -9.09336853 30.39390564 C-9.08775033 33.95013069 -9.07519475 37.50629383 -9.0625 41.0625 C-9.05748734 43.46679597 -9.05292403 45.87109292 -9.04882812 48.27539062 C-9.03777499 54.18361504 -9.02101917 60.0918031 -9 66 C-6.02536663 67.48731668 -4.32721157 67.4313052 -1 67 C5.03950645 63.70053428 8.59270309 59.79275192 10.55371094 53.11425781 C11.41257168 49.0454755 11.22707798 44.89315486 11.25 40.75 C11.270625 39.83347656 11.29125 38.91695312 11.3125 37.97265625 C11.35403269 30.69405316 10.24062879 25.22090388 6 19.125 C1.71327129 16.08856716 -2.80061468 15.36639964 -8 15 Z " fill="#010101" transform="translate(493,100)"/>
<path d="M0 0 C0.69802734 -0.00128906 1.39605469 -0.00257812 2.11523438 -0.00390625 C2.82357422 -0.00003906 3.53191406 0.00382812 4.26171875 0.0078125 C4.98939453 0.00394531 5.71707031 0.00007813 6.46679688 -0.00390625 C11.82248264 0.00607639 11.82248264 0.00607639 12.94921875 1.1328125 C13.1054243 2.54609197 13.19978048 3.9663584 13.265625 5.38671875 C13.30751953 6.24072266 13.34941406 7.09472656 13.39257812 7.97460938 C13.43189453 8.87244141 13.47121094 9.77027344 13.51171875 10.6953125 C13.55490234 11.59701172 13.59808594 12.49871094 13.64257812 13.42773438 C13.74900017 15.66259735 13.85101863 17.89757558 13.94921875 20.1328125 C14.60921875 20.1328125 15.26921875 20.1328125 15.94921875 20.1328125 C16.18898438 19.57464844 16.42875 19.01648438 16.67578125 18.44140625 C18.22625962 15.63056969 20.14203749 13.5478634 22.32421875 11.1953125 C25.7534291 7.50704103 25.7534291 7.50704103 28.53515625 3.3359375 C32.51282106 -0.29416437 37.0334833 0.60725869 42.19921875 0.8203125 C43.23046875 0.84287109 44.26171875 0.86542969 45.32421875 0.88867188 C47.8673594 0.94754087 50.40754988 1.02971185 52.94921875 1.1328125 C52.07325823 5.68682228 49.40207798 8.38891267 46.38671875 11.7578125 C45.28775798 13.01057559 44.19010595 14.26448792 43.09375 15.51953125 C42.55572754 16.1336084 42.01770508 16.74768555 41.46337891 17.38037109 C39.43581104 19.72701446 37.49815861 22.13830308 35.57421875 24.5703125 C34.9503125 25.3540625 34.32640625 26.1378125 33.68359375 26.9453125 C32.56370299 28.35778733 31.44874625 29.77419474 30.33984375 31.1953125 C27.25043724 35.01725869 24.61960952 37.24241624 19.94921875 39.1328125 C20.60921875 39.4628125 21.26921875 39.7928125 21.94921875 40.1328125 C21.94921875 40.7928125 21.94921875 41.4528125 21.94921875 42.1328125 C22.8 42.21982422 22.8 42.21982422 23.66796875 42.30859375 C26.96840005 43.5010441 28.29411072 45.58583467 30.44921875 48.3203125 C31.20203125 49.26261719 31.95484375 50.20492187 32.73046875 51.17578125 C34.1226724 53.03123576 35.46962757 54.92247631 36.74609375 56.859375 C38.62576841 59.65222493 40.57853721 62.31483006 42.62109375 64.98828125 C43.28496094 65.85775391 43.94882812 66.72722656 44.6328125 67.62304688 C46.02185669 69.43615654 47.41516151 71.24600928 48.8125 73.05273438 C49.47121094 73.91833984 50.12992187 74.78394531 50.80859375 75.67578125 C51.41155273 76.45977295 52.01451172 77.24376465 52.63574219 78.05151367 C53.94921875 80.1328125 53.94921875 80.1328125 53.94921875 83.1328125 C33.52859539 84.92916409 33.52859539 84.92916409 27.88671875 81 C25.90861251 78.13653169 24.43580608 75.27565202 22.94921875 72.1328125 C21.65800255 70.41287217 20.3265811 68.72207126 18.94921875 67.0703125 C15.94921875 63.3671875 15.94921875 63.3671875 15.94921875 61.1328125 C14.95921875 61.1328125 13.96921875 61.1328125 12.94921875 61.1328125 C12.94921875 68.3928125 12.94921875 75.6528125 12.94921875 83.1328125 C7.78265625 83.16375 7.78265625 83.16375 2.51171875 83.1953125 C1.4244751 83.2044165 0.33723145 83.21352051 -0.78295898 83.22290039 C-2.05828491 83.22664673 -2.05828491 83.22664673 -3.359375 83.23046875 C-4.23392334 83.23570557 -5.10847168 83.24094238 -6.00952148 83.24633789 C-8.05078125 83.1328125 -8.05078125 83.1328125 -9.05078125 82.1328125 C-9.17578277 79.6083218 -9.23681663 77.10981633 -9.25610352 74.58374023 C-9.26600311 73.79355499 -9.27590271 73.00336975 -9.28610229 72.1892395 C-9.31780973 69.56499272 -9.34251104 66.94072781 -9.3671875 64.31640625 C-9.38774906 62.50179053 -9.40874531 60.6871797 -9.43016052 58.87257385 C-9.48546366 54.0869643 -9.53483645 49.30131094 -9.58300781 44.515625 C-9.63316282 39.63602786 -9.68888013 34.75649465 -9.74414062 29.87695312 C-9.85182293 20.29562748 -9.95324538 10.71424642 -10.05078125 1.1328125 C-6.67185948 0.55298911 -3.43152495 0.00611914 0 0 Z " fill="#000000" transform="translate(264.05078125,99.8671875)"/>
<path d="M0 0 C1.875 0.375 1.875 0.375 4 1 C5.67004829 0.68404492 7.33637583 0.34820041 9 0 C13.80855299 -0.26228471 17.65884702 -0.17636469 22 2 C23.16213161 4.69475205 23.83276213 6.86115252 24.4375 9.6875 C24.83614854 11.31991725 25.23869184 12.95138687 25.64453125 14.58203125 C25.85674316 15.45553223 26.06895508 16.3290332 26.28759766 17.22900391 C27.79960205 23.11017247 29.68974956 28.88433423 31.50170898 34.6784668 C33.26730548 40.3942114 34.79849902 46.12784655 36.21875 51.93847656 C37.82227884 58.22230521 39.76391058 64.41399902 41.65820312 70.61523438 C41.96048828 71.62779297 42.26277344 72.64035156 42.57421875 73.68359375 C42.98546997 75.03795532 42.98546997 75.03795532 43.4050293 76.41967773 C44 79 44 79 44 84 C37.4 84 30.8 84 24 84 C24 83.01 24 82.02 24 81 C23.01 80.505 23.01 80.505 22 80 C21.22355888 77.51831839 20.54993629 75.08443349 19.9375 72.5625 C18.81643072 67.66018142 18.81643072 67.66018142 17 63 C12.38 63 7.76 63 3 63 C2.65066406 64.43214844 2.30132812 65.86429687 1.94140625 67.33984375 C1.4819559 69.20577475 1.02231042 71.0716577 0.5625 72.9375 C0.33240234 73.88302734 0.10230469 74.82855469 -0.13476562 75.80273438 C-0.46831055 77.15141602 -0.46831055 77.15141602 -0.80859375 78.52734375 C-1.11494751 79.77632446 -1.11494751 79.77632446 -1.42749023 81.05053711 C-2 83 -2 83 -3 84 C-5.44428538 84.26536271 -7.86096726 84.46905592 -10.3125 84.625 C-10.98990234 84.6765625 -11.66730469 84.728125 -12.36523438 84.78125 C-15.76867667 85.00748077 -18.74944396 85.11972881 -22 84 C-23.46415659 79.74063536 -22.42700211 77.22589443 -20.82641602 73.14990234 C-19.58622515 69.92357419 -18.59572778 66.62733767 -17.625 63.3125 C-17.41439941 62.59771484 -17.20379883 61.88292969 -16.98681641 61.14648438 C-15.00814535 54.28787366 -13.35799181 47.3580938 -11.78759766 40.39575195 C-10.6674062 35.49906405 -9.32387908 30.77624129 -7.68701172 26.02734375 C-5.58491787 19.82414995 -4.03093939 13.46805445 -3.5 6.9375 C-2.90528233 2.25409836 -2.90528233 2.25409836 0 0 Z M9 32 C8.66496236 34.29141812 8.33201958 36.58314263 8 38.875 C7.814375 40.15117187 7.62875 41.42734375 7.4375 42.7421875 C6.95563408 45.78252468 6.95563408 45.78252468 7 48 C9.31 48 11.62 48 14 48 C14.48536282 42.07658672 14.48536282 42.07658672 12.625 36.625 C12.08875 36.08875 11.5525 35.5525 11 35 C10.34 34.01 9.68 33.02 9 32 Z " fill="#010101" transform="translate(135,99)"/>
<path d="M0 0 C0.78375 0.00451172 1.5675 0.00902344 2.375 0.01367188 C4.29170014 0.02535907 6.20836048 0.04329092 8.125 0.0625 C10.70420236 6.58084778 12.64745595 13.18025273 14.5 19.9375 C14.96116211 21.60014893 14.96116211 21.60014893 15.43164062 23.29638672 C16.77921648 28.15849103 18.11514015 33.02373463 19.4453125 37.890625 C19.83819058 39.32301301 20.23140789 40.75530803 20.625 42.1875 C20.81529785 42.88270752 21.0055957 43.57791504 21.20166016 44.29418945 C22.37915121 48.54194738 23.63973949 52.75702088 24.953125 56.96484375 C25.27087891 57.98626465 25.58863281 59.00768555 25.91601562 60.06005859 C26.53734461 62.04584376 27.16580903 64.02941607 27.80273438 66.01025391 C29.59671072 71.73787613 30.65921226 77.07467608 31.125 83.0625 C28.56302188 83.28528071 26.00152444 83.49112563 23.4375 83.6875 C22.3556543 83.78417969 22.3556543 83.78417969 21.25195312 83.8828125 C17.06341229 84.18882462 13.75140869 84.33072901 10.125 82.0625 C9.26953125 80.14453125 9.26953125 80.14453125 8.9375 77.875 C8.43129496 74.87633776 7.86730411 72.18919726 7 69.25 C6.125 66.0625 6.125 66.0625 6.125 62.0625 C0.845 62.0625 -4.435 62.0625 -9.875 62.0625 C-10.22433594 63.49464844 -10.57367188 64.92679687 -10.93359375 66.40234375 C-11.3930441 68.26827475 -11.85268958 70.1341577 -12.3125 72 C-12.54259766 72.94552734 -12.77269531 73.89105469 -13.00976562 74.86523438 C-13.34331055 76.21391602 -13.34331055 76.21391602 -13.68359375 77.58984375 C-13.98994751 78.83882446 -13.98994751 78.83882446 -14.30249023 80.11303711 C-14.875 82.0625 -14.875 82.0625 -15.875 83.0625 C-17.29070123 83.14901611 -18.710595 83.16954904 -20.12890625 83.16015625 C-20.98291016 83.15693359 -21.83691406 83.15371094 -22.71679688 83.15039062 C-23.61462891 83.14201172 -24.51246094 83.13363281 -25.4375 83.125 C-26.33919922 83.12048828 -27.24089844 83.11597656 -28.16992188 83.11132812 C-30.40501314 83.09950225 -32.63997437 83.0830222 -34.875 83.0625 C-34.37679617 77.14322114 -33.39157316 71.68356176 -31.6875 66 C-29.56185992 58.66607144 -27.67855833 51.29434158 -25.875 43.875 C-23.93873132 35.9456074 -21.68560535 28.32001875 -18.9765625 20.62109375 C-16.99800619 14.22937461 -15.94109789 7.658439 -14.875 1.0625 C-9.85891475 0.0448597 -5.08891694 -0.05606434 0 0 Z M-2.875 26.0625 C-1.875 30.0625 -1.875 30.0625 -1.875 30.0625 Z M-3.875 31.0625 C-5.45970855 36.25682248 -6.16033749 41.64108775 -5.875 47.0625 C-3.895 47.0625 -1.915 47.0625 0.125 47.0625 C1.72354133 41.1478971 0.38390714 35.90965547 -0.875 30.0625 C-2.0986068 29.9879644 -2.0986068 29.9879644 -3.875 31.0625 Z " fill="#010101" transform="translate(425.875,99.9375)"/>
<path d="M0 0 C5.62704183 6.71529048 5.36844229 13.61562017 4.65625 21.9765625 C3.38051672 27.68274932 -0.20421068 32.85969772 -5.05859375 36.1328125 C-12.91717123 40.3754801 -21.60290484 42.17985036 -30.4453125 42.765625 C-32.35290081 42.77748162 -32.35290081 42.77748162 -33.34375 43.9765625 C-33.50233842 46.12042907 -33.59504298 48.26923088 -33.66015625 50.41796875 C-33.70205078 51.72314453 -33.74394531 53.02832031 -33.78710938 54.37304688 C-33.82692608 55.7617158 -33.86663825 57.15038772 -33.90625 58.5390625 C-33.94942989 59.93165433 -33.993044 61.32423278 -34.03710938 62.71679688 C-34.14360876 66.13661051 -34.24561923 69.55650013 -34.34375 72.9765625 C-36.92671017 73.17178623 -39.50979079 73.35800653 -42.09375 73.5390625 C-42.82335937 73.59513672 -43.55296875 73.65121094 -44.3046875 73.70898438 C-47.89328651 73.95366158 -50.89402225 73.97322509 -54.34375 72.9765625 C-55.21553448 69.22975841 -55.46060833 65.7827913 -55.44140625 61.93969727 C-55.43810303 60.74397598 -55.4347998 59.5482547 -55.43139648 58.31629944 C-55.42309814 57.02985031 -55.4147998 55.74340118 -55.40625 54.41796875 C-55.40183631 53.06860023 -55.39802189 51.71922962 -55.39477539 50.36985779 C-55.38146454 45.37562625 -55.35745606 40.38145734 -55.33337402 35.38726807 C-55.31342268 31.17332732 -55.29786581 26.95941205 -55.28781128 22.74543571 C-55.28145271 20.79272035 -55.26888039 18.84002828 -55.25610352 16.88734436 C-55.23354943 8.52937279 -55.63488295 0.30350266 -56.34375 -8.0234375 C-37.40725512 -11.96107876 -15.44279032 -13.80690152 0 0 Z M-34.34375 4.9765625 C-34.37270225 8.26821079 -34.3905323 11.55982649 -34.40625 14.8515625 C-34.41462891 15.78871094 -34.42300781 16.72585937 -34.43164062 17.69140625 C-34.43486328 18.58730469 -34.43808594 19.48320312 -34.44140625 20.40625 C-34.44664307 21.23366699 -34.45187988 22.06108398 -34.45727539 22.91357422 C-34.47727138 25.04068007 -34.47727138 25.04068007 -33.34375 26.9765625 C-26.30374465 27.46208011 -23.21036638 26.20490967 -17.7109375 21.61328125 C-15.4967725 18.96260943 -15.75370515 16.54114792 -15.8515625 13.203125 C-16.42861159 10.59266485 -17.13943175 9.6923631 -19.15625 7.9765625 C-23.03103276 5.54532626 -25.55413605 4.84917679 -30.03125 4.9140625 C-30.83949219 4.92308594 -31.64773438 4.93210937 -32.48046875 4.94140625 C-33.09535156 4.95300781 -33.71023438 4.96460937 -34.34375 4.9765625 Z " fill="#010101" transform="translate(381.34375,110.0234375)"/>
<path d="M0 0 C9.52632266 0.16910632 18.33065453 3.98454338 25.3125 10.3125 C24.72713247 13.97310821 23.229261 15.85785164 20.75 18.5625 C20.10933594 19.26890625 19.46867187 19.9753125 18.80859375 20.703125 C18.31488281 21.23421875 17.82117188 21.7653125 17.3125 22.3125 C14.19959785 21.76721272 11.94958754 21.13802285 9.0625 19.75 C4.84184224 17.87927178 0.8613373 17.6957085 -3.6875 18.3125 C-8.29771528 20.15658611 -10.364165 22.98629 -12.6875 27.3125 C-16.42866024 38.15552374 -15.68796318 50.9493918 -10.73828125 61.296875 C-8.84738036 64.31633729 -6.68587824 66.4338034 -3.6875 68.3125 C-1.30421164 68.7104426 -1.30421164 68.7104426 1.1875 68.5625 C2.05890625 68.53671875 2.9303125 68.5109375 3.828125 68.484375 C6.70305483 68.28548048 9.49228862 67.90622871 12.3125 67.3125 C12.3125 66.6525 12.3125 65.9925 12.3125 65.3125 C14.6225 64.9825 16.9325 64.6525 19.3125 64.3125 C20.35127263 65.8631316 21.36792555 67.42859681 22.375 69 C22.94347656 69.87011719 23.51195312 70.74023438 24.09765625 71.63671875 C25.3125 74.3125 25.3125 74.3125 25.32421875 76.97265625 C23.91420615 80.23365065 22.30469196 80.72747978 19.0625 82.0625 C18.10859375 82.46984375 17.1546875 82.8771875 16.171875 83.296875 C7.01877937 86.54797454 -5.62816154 87.02746375 -14.7265625 83.3671875 C-19.53132598 80.78295216 -24.06071281 77.40654198 -27.6875 73.3125 C-27.6875 72.6525 -27.6875 71.9925 -27.6875 71.3125 C-28.3475 71.3125 -29.0075 71.3125 -29.6875 71.3125 C-30.48173861 69.75130578 -31.27277123 68.18848036 -32.0625 66.625 C-32.72378906 65.31982422 -32.72378906 65.31982422 -33.3984375 63.98828125 C-38.73452797 52.91185103 -38.87729065 37.68915859 -36.08837891 25.74707031 C-34.5849654 21.48238409 -32.3861512 17.9493326 -29.6875 14.3125 C-29.00494141 13.23935547 -29.00494141 13.23935547 -28.30859375 12.14453125 C-23.98209494 6.08743291 -16.47765386 2.56353675 -9.4140625 0.71875 C-6.29615679 0.27509543 -3.14120559 0.26620386 0 0 Z " fill="#010101" transform="translate(221.6875,98.6875)"/>
<path d="M0 0 C4.08163818 4.30226727 5.4541793 9.06390511 5.6875 14.9375 C5.45446528 20.80389582 4.01078607 25.49660163 0.125 29.9375 C-3.61270662 31.93094353 -6.53676051 32.13630604 -10.6875 31.4375 C-15.7020993 29.2087892 -17.89492824 26.37930081 -19.9375 21.375 C-21.34228746 15.74373993 -21.3436052 9.37761081 -18.453125 4.24609375 C-13.23004246 -2.20199011 -7.58844349 -4.41188575 0 0 Z M-8.6875 6.4375 C-11.12153583 10.73285735 -10.72278541 14.48679263 -10.3671875 19.23046875 C-9.89340639 21.61897591 -9.89340639 21.61897591 -7.6328125 22.73828125 C-6.99085938 22.96902344 -6.34890625 23.19976562 -5.6875 23.4375 C-3.90658347 18.30427001 -3.43255997 14.87557347 -4.6875 9.4375 C-5.3475 8.4475 -6.0075 7.4575 -6.6875 6.4375 C-7.3475 6.4375 -8.0075 6.4375 -8.6875 6.4375 Z " fill="#020202" transform="translate(139.6875,216.5625)"/>
<path d="M0 0 C3.34603833 1.66959786 5.44883684 3.89767368 7.13671875 7.2734375 C9.08595078 13.42983549 8.8054008 20.44956414 6.875 26.5625 C4.1667311 30.08324958 1.52280675 32.50651684 -2.95703125 33.3828125 C-8.03261509 33.67395498 -11.12197132 32.42709511 -15 29 C-19.23675872 23.49221367 -18.61583385 16.6223229 -18 10 C-15.04027697 1.1208309 -8.89889821 -1.65163551 0 0 Z M-7 8 C-9.22264871 11.33397306 -9.29675463 12.59514891 -9.3125 16.5 C-9.32925781 17.4590625 -9.34601563 18.418125 -9.36328125 19.40625 C-9.20776733 22.03268624 -9.20776733 22.03268624 -7.61328125 23.85546875 C-6.0384172 25.23470026 -6.0384172 25.23470026 -3.875 24.8125 C-1.81035868 24.1564434 -1.81035868 24.1564434 -1 22 C-0.87823497 20.19051505 -0.82454208 18.37603729 -0.8125 16.5625 C-0.79123047 15.11037109 -0.79123047 15.11037109 -0.76953125 13.62890625 C-0.80850549 10.76733273 -0.80850549 10.76733273 -3 8 C-4.32 8 -5.64 8 -7 8 Z " fill="#020202" transform="translate(415,212)"/>
<path d="M0 0 C-0.82292254 3.98467756 -2.66053731 6.67947232 -5 10 C-4.236875 10.4125 -3.47375 10.825 -2.6875 11.25 C0.04294764 13.02796591 1.30163091 14.26022407 3 17 C3.66383347 20.40214656 3.60167963 23.5886421 3 27 C0.47323961 30.34625024 -1.03933542 31.67977847 -5 33 C-11.42642972 33.53553581 -14.74139465 32.78619585 -20 29 C-22.35445951 26.13370146 -22.48379559 22.87208279 -22.375 19.20703125 C-21.64324853 14.90036895 -19.43132643 11.56059733 -17 8 C-16.49210937 7.22527344 -15.98421875 6.45054687 -15.4609375 5.65234375 C-10.98896843 -0.35620237 -7.28724372 -1.05569728 0 0 Z M-10 18 C-10.99 18.99 -11.98 19.98 -13 21 C-12.34 22.32 -11.68 23.64 -11 25 C-9.35 24.67 -7.7 24.34 -6 24 C-6.33 22.35 -6.66 20.7 -7 19 C-7.99 18.67 -8.98 18.34 -10 18 Z " fill="#020202" transform="translate(310,212)"/>
<path d="M0 0 C6.58210143 6.23929622 12.77916197 15.82253688 14.859375 24.64453125 C15.00593843 30.47042776 14.05665725 34.61442459 10 39 C3.90449251 44.77469131 -2.27172691 45.29787017 -10.27490234 45.2746582 C-11.18951736 45.27976913 -12.10413239 45.28488007 -13.04646301 45.29014587 C-16.05968838 45.30400704 -19.0726841 45.30308761 -22.0859375 45.30078125 C-24.18812138 45.30467026 -26.29030448 45.30900535 -28.39248657 45.31376648 C-32.79553781 45.32122135 -37.19850885 45.32094283 -41.6015625 45.31567383 C-47.2326483 45.3098821 -52.86340487 45.32680676 -58.49443626 45.3500185 C-62.83541775 45.36477998 -67.1763204 45.36562421 -71.51732254 45.36250877 C-73.5928678 45.36302083 -75.66841761 45.36823681 -77.74393845 45.37832069 C-80.65161013 45.39071364 -83.5586464 45.38387602 -86.46630859 45.37231445 C-87.31644028 45.37995819 -88.16657196 45.38760193 -89.04246521 45.39547729 C-95.15598512 45.34198635 -101.05666938 44.52022684 -105.875 40.39453125 C-106.24625 39.87246094 -106.6175 39.35039062 -107 38.8125 C-107.99 37.4203125 -107.99 37.4203125 -109 36 C-106 36 -106 36 -102.96458435 37.97161865 C-98.28925746 40.73981566 -93.88162401 40.53399947 -88.56665039 40.45410156 C-87.5415033 40.45468567 -86.5163562 40.45526978 -85.46014404 40.45587158 C-82.0889642 40.45309626 -78.71868066 40.42202928 -75.34765625 40.390625 C-73.00353987 40.38316068 -70.65941722 40.37746865 -68.31529236 40.37347412 C-62.15846397 40.35823303 -56.0020156 40.31896378 -49.84533691 40.2746582 C-43.55775085 40.23367294 -37.27010314 40.21545612 -30.98242188 40.1953125 C-18.65478135 40.15246852 -6.32742233 40.08423521 6 40 C6 39.01 6 38.02 6 37 C6.99587634 35.99589328 7.99628946 34.99627564 9 34 C11.24980668 28.53461597 11.12182537 23.53340152 9.8984375 17.84765625 C8.7188163 15.4217396 7.38844174 15.14190262 5 14 C2.01043303 9.78613418 0.51214863 5.12148626 0 0 Z " fill="#080809" transform="translate(654,190)"/>
<path d="M0 0 C2.95733901 1.23222459 4.37110863 2.19142538 6.3125 4.6875 C7.3456381 8.16260089 7.57488386 11.44119512 7 15 C5.25364203 18.14344435 3.53137274 20.46862726 1 23 C3.31 23.66 5.62 24.32 8 25 C8 27.31 8 29.62 8 32 C-0.58 32 -9.16 32 -18 32 C-16.66276046 26.65104185 -13.31579563 24.18590899 -9.39257812 20.59765625 C-5.9334018 17.31080827 -4.08709053 14.79960723 -3 10 C-3 9.34 -3 8.68 -3 8 C-6.65316671 9.24976756 -7.78065836 9.67098753 -10 13 C-14.75 12.125 -14.75 12.125 -17 11 C-16.8123405 6.96532084 -16.20790966 5.24522677 -13.5625 2.125 C-9.42585647 -0.9724867 -4.9388988 -0.75856209 0 0 Z " fill="#020202" transform="translate(388,212)"/>
<path d="M0 0 C2.95733901 1.23222459 4.37110863 2.19142538 6.3125 4.6875 C7.3454814 8.16207381 7.57592175 11.44162636 7 15 C5.125 18.3125 5.125 18.3125 3 21 C2.34 21.99 1.68 22.98 1 24 C3.31 24.33 5.62 24.66 8 25 C8 27.31 8 29.62 8 32 C-0.58 32 -9.16 32 -18 32 C-16.66276046 26.65104185 -13.31579563 24.18590899 -9.39257812 20.59765625 C-5.9334018 17.31080827 -4.08709053 14.79960723 -3 10 C-3 9.34 -3 8.68 -3 8 C-6.65316671 9.24976756 -7.78065836 9.67098753 -10 13 C-14.75 12.125 -14.75 12.125 -17 11 C-16.8123405 6.96532084 -16.20790966 5.24522677 -13.5625 2.125 C-9.42585647 -0.9724867 -4.9388988 -0.75856209 0 0 Z " fill="#020202" transform="translate(442,212)"/>
<path d="M0 0 C3.00672452 1.28430948 3.82980527 2.3289911 6 5 C7.71473147 10.81103443 7.02037491 14.05884997 4.203125 19.3359375 C3 21 3 21 0 23 C2.31 23.66 4.62 24.32 7 25 C7 27.31 7 29.62 7 32 C-1.25 32 -9.5 32 -18 32 C-18 28 -18 28 -16.4609375 26.359375 C-15.77257812 25.82828125 -15.08421875 25.2971875 -14.375 24.75 C-10.2680333 21.35188698 -6.57023758 17.72183798 -4 13 C-4 11.68 -4 10.36 -4 9 C-5.32 8.67 -6.64 8.34 -8 8 C-8.66 9.65 -9.32 11.3 -10 13 C-15.75 12.125 -15.75 12.125 -18 11 C-17.58534283 6.16233301 -15.5801385 4.14353624 -12 1 C-8.26051168 -0.86974416 -4.0721778 -0.53630519 0 0 Z " fill="#020202" transform="translate(280,212)"/>
<path d="M0 0 C5.61 0 11.22 0 17 0 C17 2.64 17 5.28 17 8 C14.03 8 11.06 8 8 8 C8 8.66 8 9.32 8 10 C9.60875 10.3403125 9.60875 10.3403125 11.25 10.6875 C15.53596247 12.18758686 16.87933541 13.01315058 19 17 C19.75683187 20.86983843 19.89845187 24.35055209 17.9765625 27.87890625 C15.84803436 30.55569164 14.26069418 31.91310194 11 33 C5.59091325 33.34897334 2.45029511 33.40316685 -2 30 C-2.66 29.34 -3.32 28.68 -4 28 C-4 26.68 -4 25.36 -4 24 C-1.35261084 22.5393715 -0.10551666 22 3 22 C3.33 22.66 3.66 23.32 4 24 C5.65 24 7.3 24 9 24 C8.67 22.35 8.34 20.7 8 19 C4.7 18.67 1.4 18.34 -2 18 C-1.85860519 15.74971671 -1.71171997 13.49977794 -1.5625 11.25 C-1.48128906 9.99703125 -1.40007812 8.7440625 -1.31640625 7.453125 C-1 4 -1 4 0 0 Z " fill="#020202" transform="translate(455,212)"/>
<path d="M0 0 C1 1 1 1 1.11352539 3.40844727 C1.10828857 4.45057373 1.10305176 5.4927002 1.09765625 6.56640625 C1.09443359 7.69111328 1.09121094 8.81582031 1.08789062 9.97460938 C1.07951172 11.15861328 1.07113281 12.34261719 1.0625 13.5625 C1.05798828 14.75037109 1.05347656 15.93824219 1.04882812 17.16210938 C1.03699675 20.10812226 1.02051287 23.05403681 1 26 C2.65 26.33 4.3 26.66 6 27 C6.042721 28.66611905 6.04063832 30.33382885 6 32 C5 33 5 33 1.18359375 33.09765625 C-0.39846682 33.09098089 -1.98051159 33.07901875 -3.5625 33.0625 C-4.36880859 33.05798828 -5.17511719 33.05347656 -6.00585938 33.04882812 C-8.00393756 33.03700518 -10.00197783 33.01906914 -12 33 C-13.0625 31.1875 -13.0625 31.1875 -14 29 C-13.67 28.01 -13.34 27.02 -13 26 C-12.01 26 -11.02 26 -10 26 C-10 22.7 -10 19.4 -10 16 C-13.465 14.02 -13.465 14.02 -17 12 C-15.73189061 6.08215617 -12.7151965 3.41406916 -8 0 C-5.11795733 -1.44102133 -3.08226581 -0.65580124 0 0 Z " fill="#020202" transform="translate(86,215)"/>
<path d="M0 0 C2.16430664 1.12109375 2.16430664 1.12109375 4 3 C4.50170898 5.86328125 4.50170898 5.86328125 4.49609375 9.3125 C4.49673828 10.55257812 4.49738281 11.79265625 4.49804688 13.0703125 C4.47806641 14.36710938 4.45808594 15.66390625 4.4375 17 C4.44458984 18.29679687 4.45167969 19.59359375 4.45898438 20.9296875 C4.39458504 30.46078875 4.39458504 30.46078875 2.65649414 32.8359375 C0.09813219 34.6337665 -1.8962986 34.93665916 -5 35 C-7.53648845 33.21760271 -8.73045396 31.93454449 -9.59375 28.94140625 C-10.16458422 24.80834693 -10.18429169 20.73009311 -10.1875 16.5625 C-10.19974609 15.72912109 -10.21199219 14.89574219 -10.22460938 14.03710938 C-10.23579042 9.32243454 -9.97759693 5.37846898 -8 1 C-5.19084526 -0.40457737 -3.11189466 -0.24895157 0 0 Z " fill="#1B1B1B" transform="translate(608,157)"/>
<path d="M0 0 C3.41458042 0.06829161 6.04087046 0.19675607 8.73046875 2.44921875 C12.35719689 6.57742041 15 10.34875123 15 16 C10.57592694 14.52530898 9.796037 11.33673693 7.6953125 7.34765625 C5.71216555 4.60140897 4.20055349 3.94931671 1 3 C0.62101563 4.04607422 0.62101563 4.04607422 0.234375 5.11328125 C-1.15486717 8.36217354 -2.86985491 11.19602884 -4.75 14.1875 C-5.47831658 15.35388455 -6.2061781 16.52055337 -6.93359375 17.6875 C-7.61550781 18.780625 -8.29742188 19.87375 -9 21 C-9.94227388 22.55962573 -10.8802015 24.12189085 -11.8125 25.6875 C-13.71948503 28.88496532 -15.65210705 32.06510987 -17.60546875 35.234375 C-22.17552327 42.65632456 -26.65691166 50.06196198 -30.7421875 57.765625 C-31.88143535 59.78938205 -33.10040971 61.58898452 -34.5 63.4375 C-38.71185396 69.07153841 -42.60912207 76.06216843 -44 83 C-40.90944045 85.06037303 -40.29073838 85.24799242 -36.80395508 85.22705078 C-35.96331009 85.22689972 -35.1226651 85.22674866 -34.25654602 85.22659302 C-33.35333115 85.21627045 -32.45011627 85.20594788 -31.51953125 85.1953125 C-30.59154221 85.1924826 -29.66355316 85.18965271 -28.70744324 85.18673706 C-25.74233121 85.17553836 -22.77752079 85.15043435 -19.8125 85.125 C-17.80273874 85.1149698 -15.79297274 85.10584402 -13.78320312 85.09765625 C-8.85535247 85.07560004 -3.92772738 85.04107229 1 85 C1 85.33 1 85.66 1 86 C0.30849854 86.02505615 -0.38300293 86.0501123 -1.09545898 86.07592773 C-4.20967866 86.19152161 -7.32356789 86.31441242 -10.4375 86.4375 C-11.52611328 86.47681641 -12.61472656 86.51613281 -13.73632812 86.55664062 C-14.77080078 86.59853516 -15.80527344 86.64042969 -16.87109375 86.68359375 C-17.82943115 86.72025146 -18.78776855 86.75690918 -19.77514648 86.79467773 C-21.97138925 86.75834424 -21.97138925 86.75834424 -23 88 C-26.24231048 88.25185049 -29.4990677 88.1852298 -32.75 88.1875 C-33.6575 88.19974609 -34.565 88.21199219 -35.5 88.22460938 C-40.09527504 88.23468673 -43.83880494 88.21172763 -48 86 C-46.20878418 75.90405628 -42.05196355 68.17832912 -36 60 C-35.32284648 58.67196185 -34.65819079 57.3375377 -34 56 C-32.73891964 53.76457499 -31.46906916 51.53608238 -30.1875 49.3125 C-27.07981665 43.89952695 -24.00915272 38.46855639 -21 33 C-20.34 33 -19.68 33 -19 33 C-18.67 31.68 -18.34 30.36 -18 29 C-17.34 29 -16.68 29 -16 29 C-15.896875 28.071875 -15.79375 27.14375 -15.6875 26.1875 C-15 23 -15 23 -13.6796875 21.74609375 C-11.21389611 19.18281759 -9.9332329 16.05946359 -8.4375 12.875 C-5.26908023 6.13454012 -5.26908023 6.13454012 -3 5 C-1.9590934 3.35857037 -0.95495674 1.69287785 0 0 Z " fill="#080808" transform="translate(602,135)"/>
<path d="M0 0 C2.05078125 0.03255208 4.1015625 0.06510417 6.15234375 0.09765625 C7.14234375 2.40765625 8.13234375 4.71765625 9.15234375 7.09765625 C9.27609375 6.12828125 9.39984375 5.15890625 9.52734375 4.16015625 C9.73359375 3.14953125 9.93984375 2.13890625 10.15234375 1.09765625 C12.55780013 -0.10507194 14.10231328 -0.00305847 16.77734375 0.03515625 C18.00324219 0.04869141 18.00324219 0.04869141 19.25390625 0.0625 C20.19363281 0.07990234 20.19363281 0.07990234 21.15234375 0.09765625 C19.46221641 5.76982603 17.75287314 11.43615652 16.02734375 17.09765625 C15.69476563 18.19078125 15.3621875 19.28390625 15.01953125 20.41015625 C14.15234375 23.09765625 14.15234375 23.09765625 13.15234375 25.09765625 C7.94574821 25.52442638 7.94574821 25.52442638 5.15234375 25.09765625 C3.33984375 23.09765625 3.33984375 23.09765625 2.15234375 20.09765625 C1.63671875 18.90140625 1.12109375 17.70515625 0.58984375 16.47265625 C-1.19974333 11.52051846 -2.29564854 6.33252934 -2.84765625 1.09765625 C-1.84765625 0.09765625 -1.84765625 0.09765625 0 0 Z " fill="#020202" transform="translate(45.84765625,222.90234375)"/>
<path d="M0 0 C2.97 0 5.94 0 9 0 C8.51521076 6.94534793 5.8015839 12.78630654 3.0625 19.125 C2.1574539 21.2525624 1.25250255 23.38016512 0.34765625 25.5078125 C-0.05445068 26.44254395 -0.45655762 27.37727539 -0.87084961 28.34033203 C-1.94927603 30.88052175 -2.98480215 33.43397488 -4 36 C-7.3 36 -10.6 36 -14 36 C-13.54444965 31.44449652 -12.19809061 28.22462467 -10.1015625 24.2578125 C-8.89325022 21.7812008 -7.97368331 19.28770603 -7.0625 16.6875 C-5.04876947 10.95919881 -2.59006208 5.48795941 0 0 Z " fill="#010101" transform="translate(187,213)"/>
<path d="M0 0 C2.97 0 5.94 0 9 0 C8.37864402 5.67566951 6.34960629 10.5232748 4.1875 15.75 C3.84396484 16.59304687 3.50042969 17.43609375 3.14648438 18.3046875 C2.45449785 20.00284581 1.76033633 21.70011951 1.06396484 23.39648438 C-0.64886445 27.58776743 -2.32298621 31.79427553 -4 36 C-7.3 36 -10.6 36 -14 36 C-13.41928977 30.06494458 -11.07164528 25.07757564 -8.6875 19.6875 C-8.29626953 18.78837891 -7.90503906 17.88925781 -7.50195312 16.96289062 C-5.03093304 11.29552615 -2.51580055 5.64759803 0 0 Z " fill="#020202" transform="translate(213,213)"/>
<path d="M0 0 C0 10.56 0 21.12 0 32 C-2.97 32 -5.94 32 -9 32 C-9.33 26.06 -9.66 20.12 -10 14 C-11.32 14 -12.64 14 -14 14 C-14.78318389 8.95281493 -14.78318389 8.95281493 -14 6 C-9.70877518 1.61708235 -6.1232991 0 0 0 Z " fill="#030303" transform="translate(355,212)"/>
<path d="M0 0 C0 10.56 0 21.12 0 32 C-2.97 32 -5.94 32 -9 32 C-9.33 26.06 -9.66 20.12 -10 14 C-11.32 14 -12.64 14 -14 14 C-14.78318389 8.95281493 -14.78318389 8.95281493 -14 6 C-9.70877518 1.61708235 -6.1232991 0 0 0 Z " fill="#020202" transform="translate(340,212)"/>
<path d="M0 0 C2.16430664 1.12109375 2.16430664 1.12109375 4 3 C4.50170898 5.86328125 4.50170898 5.86328125 4.49609375 9.3125 C4.49673828 10.55257812 4.49738281 11.79265625 4.49804688 13.0703125 C4.47806641 14.36710938 4.45808594 15.66390625 4.4375 17 C4.44458984 18.29679687 4.45167969 19.59359375 4.45898438 20.9296875 C4.39458504 30.46078875 4.39458504 30.46078875 2.65649414 32.8359375 C0.09813219 34.6337665 -1.8962986 34.93665916 -5 35 C-7.53648845 33.21760271 -8.73045396 31.93454449 -9.59375 28.94140625 C-10.16458422 24.80834693 -10.18429169 20.73009311 -10.1875 16.5625 C-10.19974609 15.72912109 -10.21199219 14.89574219 -10.22460938 14.03710938 C-10.23579042 9.32243454 -9.97759693 5.37846898 -8 1 C-5.19084526 -0.40457737 -3.11189466 -0.24895157 0 0 Z M-5.6875 3.125 C-8.5303956 7.18627944 -9.26043209 10.84365959 -9.1875 15.75 C-9.18105469 16.71421875 -9.17460938 17.6784375 -9.16796875 18.671875 C-9.25812405 20.96000587 -9.25812405 20.96000587 -8 22 C-7.8453125 23.9490625 -7.8453125 23.9490625 -7.6875 25.9375 C-7.39162516 29.21848637 -7.39162516 29.21848637 -5.1875 31.5625 C-2.75460517 32.04907897 -1.31945422 31.82837651 1 31 C1.84588806 28.05661197 2.12845364 25.43367275 2.1328125 22.375 C2.13410156 21.50359375 2.13539063 20.6321875 2.13671875 19.734375 C2.13285156 18.83203125 2.12898437 17.9296875 2.125 17 C2.12886719 16.09765625 2.13273438 15.1953125 2.13671875 14.265625 C2.13542969 13.39421875 2.13414062 12.5228125 2.1328125 11.625 C2.13168457 10.83351562 2.13055664 10.04203125 2.12939453 9.2265625 C2.00174233 7.02998126 1.60641657 5.11011287 1 3 C-2.4786689 1.84294017 -2.4786689 1.84294017 -5.6875 3.125 Z " fill="#070707" transform="translate(608,157)"/>
<path d="M0 0 C3 1.1875 3 1.1875 5 3.1875 C5.4375 6.5625 5.4375 6.5625 5 10.1875 C2.875 12.75 2.875 12.75 0 14.1875 C-3.49918415 13.62763054 -5.3533603 12.79242101 -7.9375 10.375 C-9 8.1875 -9 8.1875 -8.875 5.625 C-7.27220563 1.16007283 -4.76774727 -1.29126489 0 0 Z " fill="#090909" transform="translate(607,199.8125)"/>
<path d="M0 0 C0.66 0 1.32 0 2 0 C3.5078125 1.75 3.5078125 1.75 5.125 4 C5.66382813 4.7425 6.20265625 5.485 6.7578125 6.25 C7.16773438 6.8275 7.57765625 7.405 8 8 C7.67 8.66 7.34 9.32 7 10 C7.66 10.33 8.32 10.66 9 11 C10.01309878 12.48491335 10.96234506 14.01382387 11.875 15.5625 C12.40609375 16.46355469 12.9371875 17.36460937 13.484375 18.29296875 C14.78938719 20.62382815 15.98033339 22.96302393 17.125 25.375 C18.2960352 27.80939267 19.11279503 29.11279503 21.0625 31.0625 C23.73850341 33.73850341 24.79282124 36.44199946 26 40 C25.57421875 42.21875 25.57421875 42.21875 25 44 C24.12601563 42.50726563 24.12601563 42.50726563 23.234375 40.984375 C17.40427097 31.04223438 11.50555313 21.14298715 5.56640625 11.265625 C5.1192627 10.51990234 4.67211914 9.77417969 4.21142578 9.00585938 C3.20735201 7.34333012 2.1824943 5.69337356 1.15234375 4.046875 C0 2 0 2 0 0 Z " fill="#090909" transform="translate(618,154)"/>
<path d="M0 0 C0 0.99 0 1.98 0 3 C-1.66279327 4.0064275 -3.32983484 5.00585407 -5 6 C-6.09166275 7.93330603 -6.09166275 7.93330603 -7 10 C-7.59554687 10.55945313 -8.19109375 11.11890625 -8.8046875 11.6953125 C-11.46573405 14.48893788 -13.22581698 17.57909501 -15.0625 20.9375 C-21.98311939 33.36825063 -21.98311939 33.36825063 -26 36 C-25.3198147 32.04520831 -23.37303782 28.85166808 -21.375 25.4375 C-20.84084473 24.51638428 -20.84084473 24.51638428 -20.29589844 23.57666016 C-8.89161856 4.0416448 -8.89161856 4.0416448 0 0 Z " fill="#0D0D0D" transform="translate(601,124)"/>
<path d="M0 0 C2.13402632 2.75551881 3.99064348 5.56147009 5.75390625 8.56640625 C7.93294013 12.23901856 10.16634444 15.86576782 12.46484375 19.46484375 C13.03654297 20.36654297 13.60824219 21.26824219 14.19726562 22.19726562 C15.3776635 24.05596171 16.56541957 25.91000137 17.75976562 27.75976562 C18.32244141 28.65244141 18.88511719 29.54511719 19.46484375 30.46484375 C19.976521 31.265271 20.48819824 32.06569824 21.01538086 32.89038086 C22 35 22 35 21 38 C20.34 37.67 19.68 37.34 19 37 C19 36.01 19 35.02 19 34 C18.34 34 17.68 34 17 34 C16.566875 33.113125 16.13375 32.22625 15.6875 31.3125 C13.63147486 27.2765988 11.37542965 23.54705463 8.8125 19.8125 C7 17 7 17 7 15 C6.34 15 5.68 15 5 15 C4.71125 14.05125 4.4225 13.1025 4.125 12.125 C3.23174891 8.94788422 3.23174891 8.94788422 1 7 C-0.1875 4.5 -0.1875 4.5 -1 2 C-0.67 1.34 -0.34 0.68 0 0 Z " fill="#080808" transform="translate(621,134)"/>
<path d="M0 0 C3 0.25 3 0.25 5 2.25 C4.625 5.875 4.625 5.875 4 9.25 C0.625 9.875 0.625 9.875 -3 10.25 C-5 8.25 -5 8.25 -5.25 5.25 C-4.90584825 1.120179 -4.129821 0.34415175 0 0 Z " fill="#020202" transform="translate(363,234.75)"/>
<path d="M0 0 C3 0.25 3 0.25 5 2.25 C4.625 5.875 4.625 5.875 4 9.25 C0.625 9.875 0.625 9.875 -3 10.25 C-5 8.25 -5 8.25 -5.25 5.25 C-4.90584825 1.120179 -4.129821 0.34415175 0 0 Z " fill="#020202" transform="translate(320,234.75)"/>
<path d="M0 0 C3 0.25 3 0.25 5 2.25 C4.625 5.875 4.625 5.875 4 9.25 C1.1875 9.875 1.1875 9.875 -2 10.25 C-2.99 9.59 -3.98 8.93 -5 8.25 C-5.3125 5.25 -5.3125 5.25 -5 2.25 C-3 0.25 -3 0.25 0 0 Z " fill="#020202" transform="translate(100,237.75)"/>
<path d="M0 0 C1.98 0.99 1.98 0.99 4 2 C4 2.66 4 3.32 4 4 C4.66 4.33 5.32 4.66 6 5 C9.99920553 10.37393243 12.39907069 15.21579822 12 22 C11.34 22 10.68 22 10 22 C10 22.66 10 23.32 10 24 C9.34 23.67 8.68 23.34 8 23 C8.25652344 21.99582031 8.51304687 20.99164063 8.77734375 19.95703125 C9.06632708 14.82123981 7.49733192 12.71154789 4.5625 8.6875 C0 2.17254829 0 2.17254829 0 0 Z " fill="#0F0F0F" transform="translate(644,198)"/>
<path d="M0 0 C1 3 1 3 -0.25 6 C-2 9 -2 9 -3.51953125 10.44921875 C-5.19062719 12.19968073 -5.71008984 13.52183571 -6.4375 15.8125 C-7.78941515 19.70285158 -9.58743136 22.67231912 -12 26 C-12.66 25.67 -13.32 25.34 -14 25 C-12.68071914 21.48283007 -11.12651609 18.34691482 -9.1796875 15.13671875 C-8.37724609 13.80737305 -8.37724609 13.80737305 -7.55859375 12.45117188 C-6.72521484 11.0831543 -6.72521484 11.0831543 -5.875 9.6875 C-5.31167969 8.75615234 -4.74835937 7.82480469 -4.16796875 6.86523438 C-2.7819554 4.57478858 -1.39254372 2.28647924 0 0 Z " fill="#0C0C0C" transform="translate(564,176)"/>
<path d="M0 0 C3.625 0.375 3.625 0.375 7 1 C6.50168276 4.68754757 5.89932357 6.60490662 3 9 C1.0625 8.3125 1.0625 8.3125 -1 7 C-1.875 4.5 -1.875 4.5 -2 2 C-1.34 1.34 -0.68 0.68 0 0 Z " fill="#1D1D1D" transform="translate(603,202)"/>
<path d="M0 0 C1.08642103 3.2592631 0.92167347 3.8663102 0 7 C-0.2165625 8.3303125 -0.2165625 8.3303125 -0.4375 9.6875 C-0.623125 10.450625 -0.80875 11.21375 -1 12 C-1.99 12.495 -1.99 12.495 -3 13 C-3.39460023 15.32375692 -3.72230092 17.6593935 -4 20 C-4.30903983 21.33917261 -4.62942911 22.67653254 -5 24 C-7.12679646 19.74640707 -6.61130097 14.60403252 -6 10 C-4.38227445 6.35893842 -2.373458 3.19286612 0 0 Z " fill="#121212" transform="translate(549,201)"/>
<path d="M0 0 C3.32859708 3.04875927 5.50435293 6.21910958 7.75 10.125 C8.67039062 11.70667969 8.67039062 11.70667969 9.609375 13.3203125 C11 16 11 16 11 18 C9.25 17.9375 9.25 17.9375 7 17 C3.30799988 11.7416968 1.63831409 6.16850078 0 0 Z " fill="#0C0C0C" transform="translate(643,172)"/>
<path d="M0 0 C0 3.16542604 -0.47563174 4.22706099 -1.9375 6.9375 C-3.36589076 9.59461399 -4.54466655 11.99606407 -5 15 C-3.64555699 16.77190909 -3.64555699 16.77190909 -2 18 C-3.32 18 -4.64 18 -6 18 C-6 17.34 -6 16.68 -6 16 C-6.66 16 -7.32 16 -8 16 C-7.40799802 10.07998018 -6.48574232 5.13063627 -1.8125 1.125 C-1.214375 0.75375 -0.61625 0.3825 0 0 Z " fill="#020203" transform="translate(563,203)"/>
<path d="M0 0 C0.33 0 0.66 0 1 0 C1.61385498 4.91083986 1.14163971 7.33402864 -1.8125 11.375 C-3.92458692 14.07638525 -4.66547271 14.8884909 -8 16 C-6.44584521 10.0942118 -3.40465533 5.02261107 0 0 Z " fill="#101010" transform="translate(573,160)"/>
<path d="M0 0 C2.67151851 2.67151851 2.29873672 4.09182532 2.3125 7.8125 C2.32925781 8.85019531 2.34601562 9.88789063 2.36328125 10.95703125 C1.95916463 14.34205108 0.93870922 16.23260768 -1 19 C-2.23701372 15.28895884 -1.42126979 14.51137242 0 11 C0.19829842 8.15772269 0.27627886 6.55255772 -1 4 C-0.5625 1.875 -0.5625 1.875 0 0 Z " fill="#010101" transform="translate(666,209)"/>
<path d="M0 0 C3.67758005 3.28355362 5.81389118 6.62778237 8 11 C7.67 11.66 7.34 12.32 7 13 C0.29612756 4.738041 0.29612756 4.738041 0 0 Z " fill="#040404" transform="translate(643,172)"/>
<path d="M0 0 C1.98 0.99 1.98 0.99 4 2 C4 2.66 4 3.32 4 4 C4.66 4.33 5.32 4.66 6 5 C6.625 7.0625 6.625 7.0625 7 9 C6.01 9.495 6.01 9.495 5 10 C4.16121545 8.71186658 3.32913217 7.41936744 2.5 6.125 C2.0359375 5.40570313 1.571875 4.68640625 1.09375 3.9453125 C0 2 0 2 0 0 Z " fill="#090909" transform="translate(644,198)"/>
<path d="M0 0 C0.33 0.66 0.66 1.32 1 2 C-0.88178097 4.4044979 -1.99224715 4.99790027 -5 5.8125 C-8 6 -8 6 -11 4 C-10.67 3.34 -10.34 2.68 -10 2 C-8.68 2.66 -7.36 3.32 -6 4 C-4.02 2.68 -2.04 1.36 0 0 Z " fill="#010101" transform="translate(611,186)"/>
<path d="M0 0 C0 3.44360632 -0.79591532 4.74795392 -2.5 7.6875 C-2.9640625 8.49574219 -3.428125 9.30398437 -3.90625 10.13671875 C-4.2671875 10.75160156 -4.628125 11.36648437 -5 12 C-6 9 -6 9 -5.0390625 6.9921875 C-4.57242188 6.29351562 -4.10578125 5.59484375 -3.625 4.875 C-3.16351562 4.17117187 -2.70203125 3.46734375 -2.2265625 2.7421875 C-1 1 -1 1 0 0 Z " fill="#010101" transform="translate(576,181)"/>
<path d="M0 0 C0.88492145 2.47778006 1.11637742 3.66056586 0.25 6.1875 C-1 8 -1 8 -4 9 C-2.94124926 5.59687262 -1.99097846 2.98646769 0 0 Z " fill="#090909" transform="translate(569,167)"/>
<path d="" fill="#000000" transform="translate(0,0)"/>
</svg>
